<svg width="0" height="0" class="hidden">
  <symbol fill="none" xmlns="http://www.w3.org/2000/svg" viewBox="0 0 21 23" id="flatHead">
    <g id="flatHead">
      <path fill-rule="evenodd" clip-rule="evenodd" d="M10.0955 0C7.01774 0 4.52271 2.49503 4.52271 5.57281C4.52271 8.6506 7.01774 11.1456 10.0955 11.1456C13.1733 11.1456 15.6683 8.6506 15.6683 5.57281C15.6683 2.49503 13.1733 0 10.0955 0ZM6.75183 5.57281C6.75183 3.72615 8.24885 2.22913 10.0955 2.22913C11.9422 2.22913 13.4392 3.72615 13.4392 5.57281C13.4392 7.41948 11.9422 8.9165 10.0955 8.9165C8.24885 8.9165 6.75183 7.41948 6.75183 5.57281Z" fill="#575757"></path>
      <path d="M5.63727 13.3748C4.15927 13.3748 2.7418 13.9619 1.69669 15.007C0.651587 16.0521 0.0644531 17.4696 0.0644531 18.9476V21.1767C0.0644531 21.7923 0.56346 22.2913 1.17902 22.2913C1.79457 22.2913 2.29358 21.7923 2.29358 21.1767V18.9476C2.29358 18.0608 2.64586 17.2103 3.27292 16.5832C3.89999 15.9562 4.75047 15.6039 5.63727 15.6039H14.5538C15.4406 15.6039 16.2911 15.9562 16.9181 16.5832C17.5452 17.2103 17.8975 18.0608 17.8975 18.9476V21.1767C17.8975 21.7923 18.3965 22.2913 19.012 22.2913C19.6276 22.2913 20.1266 21.7923 20.1266 21.1767V18.9476C20.1266 17.4696 19.5395 16.0521 18.4943 15.007C17.4492 13.9619 16.0318 13.3748 14.5538 13.3748H5.63727Z" fill="#575757"></path>
    </g>
  </symbol>
  <symbol fill="none" xmlns="http://www.w3.org/2000/svg" viewBox="0 0 33 32" id="cart">
    <g id="cart">
      <path fill-rule="evenodd" clip-rule="evenodd" d="M1.81303 0.964355C1.08395 0.964355 0.49292 1.55539 0.49292 2.28447C0.49292 3.01354 1.08395 3.60458 1.81303 3.60458H6.0114L7.10925 9.08974C7.1151 9.12731 7.12253 9.16435 7.13148 9.20079L9.33655 20.2179C9.51781 21.1291 10.0139 21.9488 10.7376 22.5314C11.458 23.1113 12.3586 23.4207 13.283 23.4062H26.0917C27.0161 23.4207 27.9166 23.1113 28.6371 22.5314C29.3611 21.9485 29.857 21.1296 30.0381 20.2179L30.04 20.208L32.1522 9.13231C32.2259 8.74585 32.1234 8.34666 31.8726 8.04352C31.6218 7.74039 31.2489 7.56491 30.8555 7.56491H9.49664L8.38791 2.02539C8.26443 1.40842 7.72267 0.964355 7.09347 0.964355H1.81303ZM10.0251 10.2051H29.2598L27.4476 19.7078C27.3866 20.01 27.2217 20.2813 26.9815 20.4747C26.7401 20.669 26.4381 20.7722 26.1284 20.7663L26.1031 20.766H13.2716L13.2463 20.7663C12.9365 20.7722 12.6345 20.669 12.3932 20.4747C12.1519 20.2804 11.9865 20.0075 11.9262 19.7036L10.0251 10.2051Z" fill="#E1E1E1"></path>
      <path d="M9.7337 28.6867C9.7337 27.2285 10.9158 26.0465 12.3739 26.0465C13.8321 26.0465 15.0141 27.2285 15.0141 28.6867C15.0141 30.1448 13.8321 31.3269 12.3739 31.3269C10.9158 31.3269 9.7337 30.1448 9.7337 28.6867Z" fill="#E1E1E1"></path>
      <path d="M24.2549 28.6867C24.2549 27.2285 25.437 26.0465 26.8951 26.0465C28.3533 26.0465 29.5354 27.2285 29.5354 28.6867C29.5354 30.1448 28.3533 31.3269 26.8951 31.3269C25.437 31.3269 24.2549 30.1448 24.2549 28.6867Z" fill="#E1E1E1"></path>
    </g>
  </symbol>
  <symbol fill="none" xmlns="http://www.w3.org/2000/svg" viewBox="0 0 28 29" id="search">
    <path fill-rule="evenodd" clip-rule="evenodd" d="M2.00024 12.701C2.00024 6.85194 6.64378 2.14429 12.3304 2.14429C18.017 2.14429 22.6605 6.85194 22.6605 12.701C22.6605 15.5671 21.5456 18.1591 19.7393 20.0575C19.702 20.085 19.6662 20.1155 19.6321 20.1489C19.5884 20.1918 19.5494 20.2377 19.5152 20.286C17.6532 22.1273 15.1171 23.2578 12.3304 23.2578C6.64378 23.2578 2.00024 18.5501 2.00024 12.701ZM20.313 22.2718C18.1646 24.1329 15.3798 25.2578 12.3304 25.2578C5.50206 25.2578 0.000244141 19.6172 0.000244141 12.701C0.000244141 5.78489 5.50206 0.144287 12.3304 0.144287C19.1587 0.144287 24.6605 5.78489 24.6605 12.701C24.6605 15.8039 23.5531 18.6501 21.7153 20.8453L27.207 26.4469C27.5937 26.8412 27.5874 27.4744 27.193 27.861C26.7987 28.2476 26.1655 28.2414 25.7789 27.847L20.313 22.2718Z" fill="#E1E1E1"></path>
  </symbol>
  <symbol fill="none" xmlns="http://www.w3.org/2000/svg" viewBox="0 0 18 31" id="woman">
    <g id="Woman">
      <path id="Vector" d="M9.32496 6.76515C11.1931 6.76515 12.7075 5.25072 12.7075 3.38257C12.7075 1.51443 11.1931 0 9.32496 0C7.45681 0 5.94238 1.51443 5.94238 3.38257C5.94238 5.25072 7.45681 6.76515 9.32496 6.76515Z" fill="#F2453F"></path>
      <path id="Vector_2" d="M17.713 16.786L17.089 14.7076V14.7009L15.7324 10.1792H15.7294L15.5778 9.66875C15.4113 9.10908 15.0686 8.61811 14.6006 8.26896C14.1326 7.91981 13.5643 7.73113 12.9804 7.73102H5.73205C5.14808 7.73084 4.57969 7.9194 4.11162 8.2686C3.64356 8.6178 3.30089 9.10892 3.13471 9.66875L2.9831 10.1792H2.97948L1.62282 14.7009V14.7076L0.996444 16.786C0.807986 17.4136 1.13537 18.0944 1.75571 18.3046C1.90939 18.3569 2.07204 18.3777 2.23394 18.3658C2.39584 18.3538 2.55367 18.3094 2.69801 18.235C2.84234 18.1607 2.97022 18.0581 3.074 17.9333C3.17778 17.8084 3.25533 17.6639 3.30203 17.5085L4.84714 12.3591L4.97822 11.9224C5.01649 11.8157 5.09108 11.7258 5.18893 11.6685C5.28678 11.6112 5.40166 11.5902 5.51346 11.609C5.62527 11.6279 5.72688 11.6855 5.80052 11.7717C5.87416 11.8579 5.91514 11.9673 5.91628 12.0806C5.91625 12.1133 5.9128 12.1459 5.90601 12.1779L3.26458 20.9841C3.22127 21.1284 3.21229 21.2808 3.23836 21.4292C3.26443 21.5775 3.32482 21.7178 3.41473 21.8387C3.50463 21.9595 3.62155 22.0577 3.75615 22.1254C3.89075 22.1931 4.0393 22.2283 4.18996 22.2284H5.94165V29.156C5.94165 30.1502 6.57769 30.9264 7.39132 30.9264C8.20495 30.9264 8.841 30.1502 8.841 29.156V22.2284H9.80745V29.156C9.80745 30.1502 10.4435 30.9264 11.2571 30.9264C12.0708 30.9264 12.7068 30.1502 12.7068 29.156V22.2284H14.5189C14.6696 22.2284 14.8182 22.1932 14.9529 22.1256C15.0876 22.058 15.2046 21.9598 15.2945 21.8389C15.3845 21.718 15.445 21.5777 15.4711 21.4293C15.4972 21.2809 15.4882 21.1284 15.4449 20.9841L12.8028 12.1767C12.7962 12.1451 12.793 12.1129 12.7932 12.0806C12.7938 11.9669 12.8345 11.8571 12.9081 11.7704C12.9818 11.6837 13.0836 11.6258 13.1958 11.6068C13.3079 11.5878 13.4231 11.609 13.5212 11.6666C13.6192 11.7242 13.6938 11.8146 13.7318 11.9218L13.8629 12.3585L15.4074 17.5079C15.4543 17.6631 15.532 17.8073 15.6358 17.9319C15.7396 18.0565 15.8675 18.1589 16.0117 18.233C16.156 18.3072 16.3137 18.3515 16.4754 18.3634C16.6371 18.3752 16.7996 18.3544 16.9531 18.3022C17.5735 18.0944 17.9009 17.4136 17.713 16.786Z" fill="#F2453F"></path>
    </g>
  </symbol>
  <symbol fill="none" xmlns="http://www.w3.org/2000/svg" viewBox="0 0 14 31" id="man">
    <g id="Man">
      <path id="Vector" d="M6.76562 6.76515C4.89748 6.76515 3.38305 5.25072 3.38305 3.38257C3.38305 1.51443 4.89748 0 6.76562 0C8.63376 0 10.1482 1.51443 10.1482 3.38257C10.1482 5.25072 8.63376 6.76515 6.76562 6.76515Z" fill="#F2453F"></path>
      <path id="Vector_2" d="M3.86627 7.73163H9.66496C10.6893 7.73466 11.6708 8.14292 12.3952 8.86724C13.1195 9.59156 13.5277 10.5731 13.5308 11.5974V18.092C13.5308 18.7473 13.0216 19.3049 12.3668 19.3284C12.2045 19.3343 12.0427 19.3075 11.8911 19.2495C11.7394 19.1915 11.601 19.1035 11.4841 18.9908C11.3672 18.8781 11.2743 18.7429 11.2108 18.5935C11.1473 18.444 11.1146 18.2833 11.1146 18.121V12.097C11.1162 11.9723 11.0705 11.8517 10.9868 11.7592C10.9032 11.6668 10.7876 11.6094 10.6634 11.5986C10.5973 11.5942 10.531 11.6035 10.4687 11.6258C10.4063 11.6481 10.3492 11.683 10.3008 11.7283C10.2525 11.7736 10.214 11.8284 10.1878 11.8892C10.1615 11.95 10.148 12.0156 10.1482 12.0819V29.5372C10.1482 29.9056 10.0018 30.259 9.74128 30.5195C9.48074 30.7801 9.12737 30.9264 8.75892 30.9264C8.39046 30.9264 8.03709 30.7801 7.77655 30.5195C7.51601 30.259 7.36965 29.9056 7.36965 29.5372V20.92C7.37178 20.7641 7.3149 20.613 7.21039 20.4972C7.10588 20.3814 6.96147 20.3093 6.80608 20.2955C6.72342 20.2899 6.64051 20.3014 6.56249 20.3293C6.48446 20.3572 6.41301 20.4008 6.35256 20.4574C6.29211 20.5141 6.24396 20.5826 6.21111 20.6586C6.17825 20.7347 6.1614 20.8167 6.16158 20.8995V29.5372C6.16158 29.9056 6.01521 30.259 5.75467 30.5195C5.49414 30.7801 5.14077 30.9264 4.77231 30.9264C4.40385 30.9264 4.05049 30.7801 3.78995 30.5195C3.52941 30.259 3.38304 29.9056 3.38304 29.5372V12.097C3.38458 11.9723 3.33893 11.8517 3.25525 11.7592C3.17156 11.6668 3.05604 11.6094 2.93183 11.5986C2.86573 11.5942 2.79944 11.6035 2.73706 11.6258C2.67469 11.6481 2.61757 11.683 2.56925 11.7283C2.52093 11.7736 2.48244 11.8284 2.45618 11.8892C2.42992 11.95 2.41644 12.0156 2.41659 12.0819V18.0932C2.41659 18.7486 1.90739 19.3061 1.25262 19.3296C1.09026 19.3356 0.928359 19.3087 0.776623 19.2506C0.624886 19.1925 0.486426 19.1044 0.369527 18.9916C0.252626 18.8787 0.15969 18.7435 0.0962763 18.5939C0.0328636 18.4443 0.000276566 18.2834 0.000466347 18.121V11.5974C0.00349331 10.5731 0.411755 9.59156 1.13608 8.86724C1.8604 8.14292 2.84192 7.73466 3.86627 7.73163Z" fill="#F2453F"></path>
    </g>
  </symbol>
</svg>