<svg width="45" height="41" viewBox="0 0 45 41" fill="none" xmlns="http://www.w3.org/2000/svg">
<path id="love" fill-rule="evenodd" clip-rule="evenodd" d="M19.5885 7.50165C16.0254 3.93863 10.2486 3.93863 6.68561 7.50165C3.12259 11.0647 3.12259 16.8415 6.68562 20.4045L8.21254 21.9314C8.2375 21.9564 8.26171 21.9819 8.28517 22.0081L22.5001 36.223L36.7145 22.0087C36.7381 21.9824 36.7625 21.9567 36.7877 21.9314L38.3146 20.4045C41.8777 16.8415 41.8777 11.0647 38.3147 7.50165C34.7516 3.93863 28.9748 3.93863 25.4118 7.50165L23.8849 9.02858C23.1201 9.79336 21.8802 9.79336 21.1154 9.02858L19.5885 7.50165ZM39.6325 24.6257C39.6089 24.6519 39.5845 24.6777 39.5592 24.7029L23.8869 40.3753C23.5195 40.7427 23.0212 40.949 22.5017 40.9489C22.5012 40.9489 22.5022 40.9489 22.5017 40.9489C22.5012 40.9489 22.4991 40.9489 22.4986 40.9489C21.979 40.949 21.4807 40.7427 21.1134 40.3753L5.44102 24.7029C5.41577 24.6777 5.39134 24.6519 5.36775 24.6256L3.91611 23.174C-1.17646 18.0814 -1.17647 9.82473 3.91611 4.73215C9.00868 -0.360424 17.2654 -0.360424 22.358 4.73215L22.5001 4.87433L22.6423 4.73215C27.7349 -0.360425 35.9916 -0.360424 41.0842 4.73215C46.1767 9.82473 46.1767 18.0814 41.0842 23.174L39.6325 24.6257Z" fill="#E1E1E1"/>
</svg>
