<svg width="0" height="0" class="hidden">
  <symbol fill="none" xmlns="http://www.w3.org/2000/svg" viewBox="0 0 35 35" id="medium">
    <g id="medium">
      <path id="Vector" d="M17.8248 34.4912C27.2459 34.4912 34.8832 26.8801 34.8832 17.4912C34.8832 8.10237 27.2459 0.491211 17.8248 0.491211C8.40367 0.491211 0.766357 8.10237 0.766357 17.4912C0.766357 26.8801 8.40367 34.4912 17.8248 34.4912Z" fill="white"></path>
      <path id="Vector_2" d="M13.1677 11.4304C16.4959 11.4304 19.1937 14.1441 19.1937 17.4911C19.1937 20.8383 16.4957 23.5517 13.1677 23.5517C9.8398 23.5517 7.1416 20.8383 7.1416 17.4911C7.1416 14.1441 9.83955 11.4304 13.1677 11.4304ZM22.791 11.7854C24.4551 11.7854 25.8041 14.3397 25.8041 17.4911H25.8043C25.8043 20.6418 24.4553 23.1969 22.7913 23.1969C21.1273 23.1969 19.7782 20.6418 19.7782 17.4911C19.7782 14.3406 21.127 11.7854 22.7911 11.7854H22.791ZM27.4485 12.3798C28.0336 12.3798 28.5082 14.6682 28.5082 17.4912C28.5082 20.3133 28.0338 22.6027 27.4485 22.6027C26.8631 22.6027 26.389 20.314 26.389 17.4912C26.389 14.6684 26.8634 12.3798 27.4485 12.3798Z" fill="#2C2C2C"></path>
    </g>
  </symbol>
  <symbol fill="none" xmlns="http://www.w3.org/2000/svg" viewBox="0 0 35 35" id="fiverr">
    <g id="fiverr">
      <path id="Vector" d="M17.9417 34.4912C27.3628 34.4912 35.0001 26.8801 35.0001 17.4912C35.0001 8.10237 27.3628 0.491211 17.9417 0.491211C8.52062 0.491211 0.883301 8.10237 0.883301 17.4912C0.883301 26.8801 8.52062 34.4912 17.9417 34.4912Z" fill="white"></path>
      <g id="Group">
        <path id="Vector_2" d="M32.6374 14.3208C32.6374 13.7598 32.1939 13.3008 31.631 13.3008C31.0851 13.3008 30.6331 13.7513 30.6331 14.3208C30.6331 14.8818 31.0766 15.3408 31.631 15.3408C32.1939 15.3493 32.6374 14.8903 32.6374 14.3208ZM31.631 15.0603C31.2472 15.0603 30.9486 14.7373 30.9486 14.3208C30.9486 13.9128 31.2472 13.5898 31.631 13.5898C32.0233 13.5898 32.3304 13.9128 32.3304 14.3208C32.3304 14.7373 32.0233 15.0603 31.631 15.0603Z" fill="#2C2C2C"></path>
        <path id="Vector_3" d="M31.9041 14.4057C31.9553 14.3887 32.0662 14.3122 32.0662 14.1507C32.0662 13.9552 31.9382 13.8362 31.725 13.8362H31.2729V14.7967H31.5715V14.4737H31.6482L31.7847 14.7967H32.1088L31.9297 14.4652C31.9126 14.4142 31.9041 14.4057 31.9041 14.4057ZM31.6482 14.2697H31.5715V14.0402H31.6482C31.7165 14.0402 31.7506 14.0742 31.7506 14.1507C31.7591 14.2272 31.7165 14.2697 31.6482 14.2697Z" fill="#2C2C2C"></path>
        <path id="Vector_4" d="M10.4786 15.1113C10.9025 15.1113 11.2462 14.7688 11.2462 14.3463C11.2462 13.9238 10.9025 13.5813 10.4786 13.5813C10.0546 13.5813 9.71094 13.9238 9.71094 14.3463C9.71094 14.7688 10.0546 15.1113 10.4786 15.1113Z" fill="#2C2C2C"></path>
        <path id="Vector_5" d="M11.2804 15.6126H7.76641V15.3831C7.76641 14.9326 8.21846 14.9241 8.44874 14.9241C8.71315 14.9241 8.83256 14.9496 8.83256 14.9496V13.7086C8.83256 13.7086 8.59374 13.6746 8.26963 13.6746C7.53612 13.6746 6.17997 13.8786 6.17997 15.4256V15.6211H5.54028V16.7686H6.17997V19.1911H5.58293V20.3386H8.4658V19.1911H7.76641V16.7686H9.68548V19.1911H9.08843V20.3386H11.8775V19.1911H11.2804V15.6126ZM17.2509 15.6126H14.7348V16.7601H15.1612L14.6154 18.4601C14.513 18.7406 14.4874 19.0806 14.4874 19.0806H14.4533C14.4533 19.0806 14.4277 18.7406 14.3254 18.4601L13.7795 16.7601H14.206V15.6126H11.6898V16.7601H12.2187L13.5322 20.3301H15.4086L16.7221 16.7601H17.2509V15.6126ZM21.9078 17.7801C21.9078 16.4711 21.1146 15.5021 19.7073 15.5021C18.1806 15.5021 17.2424 16.5816 17.2424 17.9671C17.2424 19.2251 18.155 20.4406 19.8438 20.4406C21.1231 20.4406 21.8822 19.7776 21.8822 19.7776L21.3023 18.6811C21.3023 18.6811 20.6711 19.1316 19.9717 19.1316C19.4685 19.1316 18.9908 18.8681 18.8714 18.2646H21.8737C21.8652 18.2561 21.9078 17.9331 21.9078 17.7801ZM18.9056 17.3891C18.9908 17.0236 19.2126 16.6921 19.6647 16.6921C20.0144 16.6921 20.2617 17.0151 20.2617 17.3891H18.9056ZM28.6374 16.7006H28.6203C28.6203 16.7006 28.6374 16.6071 28.6374 16.4626V16.2161C28.6374 15.7826 28.3986 15.6126 27.9636 15.6126H26.471V16.7601H26.9145C27.0424 16.7601 27.1192 16.8366 27.1192 16.9641V19.1911H26.4795V20.3386H29.3538V19.1911H28.7141V18.5026C28.7141 17.6441 29.1406 17.0831 30.0191 17.0831C30.2153 17.0831 30.3432 17.1086 30.3432 17.1086V15.5531C30.3432 15.5531 30.2494 15.5361 30.1556 15.5361C29.4391 15.5276 28.8421 16.0546 28.6374 16.7006ZM24.4325 16.7006H24.4154C24.4154 16.7006 24.4325 16.6071 24.4325 16.4626V16.2161C24.4325 15.7826 24.1937 15.6126 23.7587 15.6126H22.2661V16.7601H22.7096C22.8375 16.7601 22.9143 16.8366 22.9143 16.9641V19.1911H22.2746V20.3386H25.1489V19.1911H24.5092V18.5026C24.5092 17.6441 24.9357 17.0831 25.8142 17.0831C26.0104 17.0831 26.1383 17.1086 26.1383 17.1086V15.5531C26.1383 15.5531 26.0445 15.5361 25.9507 15.5361C25.2257 15.5276 24.6287 16.0546 24.4325 16.7006Z" fill="#2C2C2C"></path>
      </g>
    </g>
  </symbol>
  <symbol fill="none" xmlns="http://www.w3.org/2000/svg" viewBox="0 0 35 36" id="behance">
    <g id="behance">
      <g id="Group">
        <path id="Vector" d="M17.5 35.9912C27.165 35.9912 35 28.1562 35 18.4912C35 8.82623 27.165 0.991211 17.5 0.991211C7.83502 0.991211 0 8.82623 0 18.4912C0 28.1562 7.83502 35.9912 17.5 35.9912Z" fill="white"></path>
      </g>
      <g id="Group_2">
        <path id="Vector_2" d="M23.7738 15.4475C18.7192 15.4475 18.7127 20.4831 18.7127 20.509C18.7127 20.509 18.3664 25.5508 23.7738 25.5508C23.7738 25.5508 28.2834 25.8072 28.2834 22.0419H25.9678C25.9678 22.0419 26.0445 23.4594 23.8509 23.4594C23.8509 23.4594 21.5352 23.6135 21.5352 21.1694H28.3605C28.3605 21.1694 29.111 15.4475 23.7738 15.4475ZM21.5093 19.4053C21.5093 19.4053 21.7917 17.3782 23.8253 17.3782C25.8652 17.3782 25.833 19.4053 25.833 19.4053H21.5093ZM15.7238 18.1097C15.7238 18.1097 17.7316 17.9622 17.7316 15.6016C17.7316 13.2476 16.0894 12.0928 14.0047 12.0928H7.14697V25.2747H14.004C14.004 25.2747 18.193 25.4032 18.193 21.3812C18.193 21.3812 18.373 18.1097 15.7238 18.1097ZM10.1686 14.434H14.0043C14.0043 14.434 14.9346 14.434 14.9346 15.8066C14.9346 17.1792 14.3893 17.3782 13.767 17.3782H10.1686V14.434ZM13.8122 22.9335H10.1686V19.4053H14.0043C14.0043 19.4053 15.3966 19.3925 15.39 21.2205C15.39 22.7604 14.3575 22.9207 13.8122 22.9335ZM20.9385 12.8689V14.492H26.3783V12.8689H20.9385Z" fill="#2C2C2C"></path>
      </g>
    </g>
  </symbol>
  <symbol fill="none" xmlns="http://www.w3.org/2000/svg" viewBox="0 0 35 35" id="dribbble">
    <g id="dribbble">
      <path id="Vector" d="M17.7664 34.4912C27.1552 34.4912 34.7664 26.8801 34.7664 17.4912C34.7664 8.10237 27.1552 0.491211 17.7664 0.491211C8.37752 0.491211 0.766357 8.10237 0.766357 17.4912C0.766357 26.8801 8.37752 34.4912 17.7664 34.4912Z" fill="white"></path>
      <g id="Group">
        <path id="Vector_2" d="M17.7661 6.69482C11.8056 6.69482 6.9563 11.5383 6.9563 17.4913C6.9563 23.4442 11.8056 28.2874 17.7661 28.2874C23.7269 28.2874 28.5765 23.4445 28.5765 17.4913C28.5765 11.5383 23.7269 6.69482 17.7661 6.69482ZM24.8794 11.7905C26.1124 13.3187 26.8619 15.2488 26.8964 17.3519C26.4861 17.2676 24.7484 16.9437 22.672 16.9437C22.002 16.9437 21.2968 16.9773 20.5898 17.0646C20.5301 16.9194 20.4704 16.7749 20.4077 16.6288C20.2243 16.1976 20.0268 15.7697 19.8222 15.3482C23.0181 14.0314 24.5597 12.2041 24.8794 11.7905ZM17.7661 8.38488C20.0695 8.38488 22.175 9.24067 23.7833 10.6501C23.5287 10.9974 22.1481 12.7232 19.0664 13.8875C17.64 11.2801 16.0787 9.12097 15.7072 8.61974C16.3694 8.4664 17.0585 8.38488 17.7661 8.38488ZM13.8432 9.26976C14.1581 9.70342 15.7218 11.8856 17.1848 14.4721C13.2583 15.5042 9.77155 15.5715 8.93001 15.5715H8.84061C9.44517 12.7853 11.3277 10.4701 13.8432 9.26976ZM8.63333 17.5055C8.63333 17.4304 8.63454 17.3552 8.63696 17.2804C8.69151 17.281 8.77212 17.281 8.87667 17.281C10.01 17.281 13.9441 17.1873 17.9982 15.9842C18.2443 16.4655 18.4785 16.954 18.6964 17.4422C18.594 17.4716 18.4931 17.501 18.3928 17.5337C13.8281 19.008 11.3192 22.9109 10.9331 23.5488C9.50275 21.9372 8.63333 19.8214 8.63333 17.5055ZM17.7661 26.6255C15.6715 26.6255 13.7384 25.9161 12.1959 24.7267C12.4568 24.2151 14.3505 20.8056 19.3528 19.0647C19.3558 19.0634 19.3592 19.0622 19.3628 19.0613C20.6171 22.3269 21.1483 25.0676 21.2941 25.917C20.2086 26.3734 19.0164 26.6255 17.7661 26.6255ZM22.939 25.0179C22.8166 24.3151 22.3244 21.7466 21.1886 18.6137C21.8256 18.5146 22.4453 18.4755 23.0266 18.4755C24.9354 18.4755 26.4285 18.8934 26.7755 18.9995C26.3631 21.4872 24.9388 23.64 22.939 25.0179Z" fill="#2C2C2C"></path>
      </g>
    </g>
  </symbol>
  <symbol fill="none" xmlns="http://www.w3.org/2000/svg" viewBox="0 0 36 35" id="linkedin">
    <g id="linkedin">
      <path id="Vector" d="M18.2664 34.4912C27.9313 34.4912 35.7664 26.8801 35.7664 17.4912C35.7664 8.10237 27.9313 0.491211 18.2664 0.491211C8.60137 0.491211 0.766357 8.10237 0.766357 17.4912C0.766357 26.8801 8.60137 34.4912 18.2664 34.4912Z" fill="white"></path>
      <g id="Group">
        <path id="Vector_2" d="M28.7226 18.8594V25.8681H24.5396V19.3291C24.5396 17.6872 23.9356 16.566 22.4211 16.566C21.2653 16.566 20.5787 17.3209 20.2755 18.0518C20.1653 18.313 20.137 18.6758 20.137 19.0421V25.8678H15.9536C15.9536 25.8678 16.0098 14.7929 15.9536 13.6465H20.1373V15.3784C20.1288 15.392 20.117 15.4053 20.1095 15.4184H20.1373V15.3784C20.6932 14.5474 21.6846 13.3595 23.9072 13.3595C26.6593 13.3595 28.7226 15.1062 28.7226 18.8594ZM11.5776 7.75537C10.1466 7.75537 9.21045 8.66783 9.21045 9.86666C9.21045 11.04 10.1195 11.9789 11.5227 11.9789H11.5498C13.0088 11.9789 13.916 11.04 13.916 9.86666C13.8882 8.66783 13.0088 7.75537 11.5776 7.75537ZM9.45908 25.8681H13.6408V13.6465H9.45908V25.8681Z" fill="#2C2C2C"></path>
      </g>
    </g>
  </symbol>
</svg>